<mxfile host="app.diagrams.net" agent="Mozilla/5.0 (Macintosh; Intel Mac OS X 10_15_7) AppleWebKit/537.36 (KHTML, like Gecko) Chrome/133.0.0.0 Safari/537.36" version="26.0.16">
  <diagram id="prtHgNgQTEPvFCAcTncT" name="Page-1">
    <mxGraphModel dx="1272" dy="2021" grid="1" gridSize="10" guides="1" tooltips="1" connect="1" arrows="1" fold="1" page="1" pageScale="1" pageWidth="827" pageHeight="1169" math="0" shadow="0">
      <root>
        <mxCell id="0" />
        <mxCell id="1" parent="0" />
        <mxCell id="4gxzHDE2BIGh4aAOhK9_-4" value="Luồn hoạt động chính Đặt Lịch Khám Bệnh" style="swimlane;html=1;childLayout=stackLayout;resizeParent=1;resizeParentMax=0;startSize=20;whiteSpace=wrap;strokeColor=default;align=center;verticalAlign=top;fontFamily=Helvetica;fontSize=12;fontColor=default;fillColor=default;" vertex="1" parent="1">
          <mxGeometry x="20" y="-40" width="1150" height="960" as="geometry" />
        </mxCell>
        <mxCell id="4gxzHDE2BIGh4aAOhK9_-5" value="Bệnh Nhân" style="swimlane;html=1;startSize=20;strokeColor=default;align=center;verticalAlign=top;fontFamily=Helvetica;fontSize=12;fontColor=default;fillColor=default;" vertex="1" parent="4gxzHDE2BIGh4aAOhK9_-4">
          <mxGeometry y="20" width="450" height="940" as="geometry" />
        </mxCell>
        <mxCell id="4gxzHDE2BIGh4aAOhK9_-6" style="rounded=0;orthogonalLoop=1;jettySize=auto;html=1;fontFamily=Helvetica;fontSize=12;fontColor=default;" edge="1" parent="4gxzHDE2BIGh4aAOhK9_-5" source="4gxzHDE2BIGh4aAOhK9_-7" target="4gxzHDE2BIGh4aAOhK9_-8">
          <mxGeometry relative="1" as="geometry" />
        </mxCell>
        <mxCell id="4gxzHDE2BIGh4aAOhK9_-7" value="" style="strokeWidth=2;html=1;shape=mxgraph.flowchart.start_2;whiteSpace=wrap;fillColor=#000000;strokeColor=default;align=center;verticalAlign=top;fontFamily=Helvetica;fontSize=12;fontColor=default;" vertex="1" parent="4gxzHDE2BIGh4aAOhK9_-5">
          <mxGeometry x="20" y="50" width="40" height="40" as="geometry" />
        </mxCell>
        <mxCell id="4gxzHDE2BIGh4aAOhK9_-8" value="Truy cập vào ứng dụng &quot;Bệnh viện số&quot;" style="rounded=1;whiteSpace=wrap;html=1;fillColor=#ffffff;strokeColor=default;align=center;verticalAlign=top;fontFamily=Helvetica;fontSize=12;fontColor=default;" vertex="1" parent="4gxzHDE2BIGh4aAOhK9_-5">
          <mxGeometry x="112" y="47.5" width="126" height="45" as="geometry" />
        </mxCell>
        <mxCell id="4gxzHDE2BIGh4aAOhK9_-9" style="edgeStyle=orthogonalEdgeStyle;rounded=0;orthogonalLoop=1;jettySize=auto;html=1;entryX=0.5;entryY=0;entryDx=0;entryDy=0;fontFamily=Helvetica;fontSize=12;fontColor=default;" edge="1" parent="4gxzHDE2BIGh4aAOhK9_-5" source="4gxzHDE2BIGh4aAOhK9_-10" target="4gxzHDE2BIGh4aAOhK9_-12">
          <mxGeometry relative="1" as="geometry" />
        </mxCell>
        <mxCell id="4gxzHDE2BIGh4aAOhK9_-10" value="Đăng nhập tài khoản" style="rounded=1;whiteSpace=wrap;html=1;fillColor=#ffffff;strokeColor=default;align=center;verticalAlign=top;fontFamily=Helvetica;fontSize=12;fontColor=default;" vertex="1" parent="4gxzHDE2BIGh4aAOhK9_-5">
          <mxGeometry x="284" y="120" width="126" height="30" as="geometry" />
        </mxCell>
        <mxCell id="4gxzHDE2BIGh4aAOhK9_-12" value="Truy cập Đặt lịch khám" style="rounded=1;whiteSpace=wrap;html=1;fillColor=#ffffff;strokeColor=default;align=center;verticalAlign=top;fontFamily=Helvetica;fontSize=12;fontColor=default;" vertex="1" parent="4gxzHDE2BIGh4aAOhK9_-5">
          <mxGeometry x="90" y="170" width="126" height="30" as="geometry" />
        </mxCell>
        <mxCell id="4gxzHDE2BIGh4aAOhK9_-14" value="Nhập các thông tin về người đặt lịch" style="rounded=1;whiteSpace=wrap;html=1;fillColor=#ffffff;strokeColor=default;align=center;verticalAlign=top;fontFamily=Helvetica;fontSize=12;fontColor=default;" vertex="1" parent="4gxzHDE2BIGh4aAOhK9_-5">
          <mxGeometry x="90" y="320" width="126" height="40" as="geometry" />
        </mxCell>
        <mxCell id="4gxzHDE2BIGh4aAOhK9_-15" value="Làm bài kiểm tra" style="rounded=1;whiteSpace=wrap;html=1;fillColor=#ffffff;strokeColor=default;align=center;verticalAlign=middle;fontFamily=Helvetica;fontSize=12;fontColor=default;" vertex="1" parent="4gxzHDE2BIGh4aAOhK9_-5">
          <mxGeometry x="300" y="510" width="126" height="40" as="geometry" />
        </mxCell>
        <mxCell id="4gxzHDE2BIGh4aAOhK9_-16" value="Chọn đã làm xong" style="rhombus;whiteSpace=wrap;html=1;fillColor=#ffffff;" vertex="1" parent="4gxzHDE2BIGh4aAOhK9_-5">
          <mxGeometry x="180" y="590" width="80" height="80" as="geometry" />
        </mxCell>
        <mxCell id="4gxzHDE2BIGh4aAOhK9_-17" value="Xem đáp án điểm" style="rounded=1;whiteSpace=wrap;html=1;fillColor=#ffffff;strokeColor=default;align=center;verticalAlign=middle;fontFamily=Helvetica;fontSize=12;fontColor=default;" vertex="1" parent="4gxzHDE2BIGh4aAOhK9_-5">
          <mxGeometry x="70" y="790" width="126" height="40" as="geometry" />
        </mxCell>
        <mxCell id="4gxzHDE2BIGh4aAOhK9_-18" value="Nhấn bắt đầu làm bài kiểm tra" style="rounded=1;whiteSpace=wrap;html=1;fillColor=#ffffff;strokeColor=default;align=center;verticalAlign=top;fontFamily=Helvetica;fontSize=12;fontColor=default;" vertex="1" parent="4gxzHDE2BIGh4aAOhK9_-5">
          <mxGeometry x="90" y="420" width="170" height="30" as="geometry" />
        </mxCell>
        <mxCell id="4gxzHDE2BIGh4aAOhK9_-19" style="edgeStyle=orthogonalEdgeStyle;rounded=0;orthogonalLoop=1;jettySize=auto;html=1;fontFamily=Helvetica;fontSize=12;fontColor=default;exitX=1;exitY=0.5;exitDx=0;exitDy=0;" edge="1" parent="4gxzHDE2BIGh4aAOhK9_-5" source="4gxzHDE2BIGh4aAOhK9_-18" target="4gxzHDE2BIGh4aAOhK9_-15">
          <mxGeometry relative="1" as="geometry">
            <mxPoint x="626" y="350" as="sourcePoint" />
            <mxPoint x="207" y="420" as="targetPoint" />
          </mxGeometry>
        </mxCell>
        <mxCell id="4gxzHDE2BIGh4aAOhK9_-20" value="Hệ Thống" style="swimlane;html=1;startSize=20;strokeColor=default;align=center;verticalAlign=top;fontFamily=Helvetica;fontSize=12;fontColor=default;fillColor=default;" vertex="1" parent="4gxzHDE2BIGh4aAOhK9_-4">
          <mxGeometry x="450" y="20" width="350" height="940" as="geometry" />
        </mxCell>
        <mxCell id="4gxzHDE2BIGh4aAOhK9_-21" value="Hiện thị trang chủ" style="rounded=1;whiteSpace=wrap;html=1;fillColor=#ffffff;strokeColor=default;align=center;verticalAlign=top;fontFamily=Helvetica;fontSize=12;fontColor=default;" vertex="1" parent="4gxzHDE2BIGh4aAOhK9_-20">
          <mxGeometry x="50" y="55" width="126" height="30" as="geometry" />
        </mxCell>
        <mxCell id="4gxzHDE2BIGh4aAOhK9_-22" value="" style="ellipse;html=1;shape=endState;fillColor=#000000;strokeColor=#ff0000;align=center;verticalAlign=top;fontFamily=Helvetica;fontSize=12;fontColor=default;" vertex="1" parent="4gxzHDE2BIGh4aAOhK9_-20">
          <mxGeometry x="300" y="870" width="30" height="30" as="geometry" />
        </mxCell>
        <mxCell id="4gxzHDE2BIGh4aAOhK9_-23" value="Hiện thị bài kiểm tra" style="rounded=1;whiteSpace=wrap;html=1;fillColor=#ffffff;strokeColor=default;align=center;verticalAlign=top;fontFamily=Helvetica;fontSize=12;fontColor=default;" vertex="1" parent="4gxzHDE2BIGh4aAOhK9_-20">
          <mxGeometry x="62" y="325" width="126" height="30" as="geometry" />
        </mxCell>
        <mxCell id="4gxzHDE2BIGh4aAOhK9_-24" value="Hiện thị điểm và đáp án và khung phản hồi ý kiến" style="rounded=1;whiteSpace=wrap;html=1;fillColor=#ffffff;strokeColor=default;align=center;verticalAlign=middle;fontFamily=Helvetica;fontSize=12;fontColor=default;" vertex="1" parent="4gxzHDE2BIGh4aAOhK9_-20">
          <mxGeometry x="204" y="710" width="126" height="40" as="geometry" />
        </mxCell>
        <mxCell id="4gxzHDE2BIGh4aAOhK9_-25" value="Hết thời gian làm bài&amp;nbsp;" style="rhombus;whiteSpace=wrap;html=1;fillColor=#ffffff;strokeColor=default;align=center;verticalAlign=middle;fontFamily=Helvetica;fontSize=12;fontColor=default;" vertex="1" parent="4gxzHDE2BIGh4aAOhK9_-20">
          <mxGeometry x="110" y="590" width="80" height="80" as="geometry" />
        </mxCell>
        <mxCell id="4gxzHDE2BIGh4aAOhK9_-26" style="edgeStyle=orthogonalEdgeStyle;rounded=0;orthogonalLoop=1;jettySize=auto;html=1;fontFamily=Helvetica;fontSize=12;fontColor=default;exitX=1;exitY=0.5;exitDx=0;exitDy=0;" edge="1" parent="4gxzHDE2BIGh4aAOhK9_-20" source="4gxzHDE2BIGh4aAOhK9_-25" target="4gxzHDE2BIGh4aAOhK9_-24">
          <mxGeometry relative="1" as="geometry" />
        </mxCell>
        <mxCell id="4gxzHDE2BIGh4aAOhK9_-27" value="Yes" style="edgeLabel;html=1;align=center;verticalAlign=middle;resizable=0;points=[];strokeColor=default;fontFamily=Helvetica;fontSize=12;fontColor=default;fillColor=default;" connectable="0" vertex="1" parent="4gxzHDE2BIGh4aAOhK9_-26">
          <mxGeometry x="-0.1102" y="-2" relative="1" as="geometry">
            <mxPoint as="offset" />
          </mxGeometry>
        </mxCell>
        <mxCell id="4gxzHDE2BIGh4aAOhK9_-28" value="Hiện thị giao diện đặt lịch khám" style="rounded=1;whiteSpace=wrap;html=1;fillColor=#ffffff;strokeColor=default;align=center;verticalAlign=top;fontFamily=Helvetica;fontSize=12;fontColor=default;" vertex="1" parent="4gxzHDE2BIGh4aAOhK9_-20">
          <mxGeometry x="34" y="165" width="170" height="40" as="geometry" />
        </mxCell>
        <mxCell id="4gxzHDE2BIGh4aAOhK9_-29" style="rounded=0;orthogonalLoop=1;jettySize=auto;html=1;entryX=0;entryY=0.5;entryDx=0;entryDy=0;fontFamily=Helvetica;fontSize=12;fontColor=default;" edge="1" parent="4gxzHDE2BIGh4aAOhK9_-4" source="4gxzHDE2BIGh4aAOhK9_-8" target="4gxzHDE2BIGh4aAOhK9_-21">
          <mxGeometry relative="1" as="geometry" />
        </mxCell>
        <mxCell id="4gxzHDE2BIGh4aAOhK9_-30" style="edgeStyle=orthogonalEdgeStyle;rounded=0;orthogonalLoop=1;jettySize=auto;html=1;entryX=1;entryY=0.5;entryDx=0;entryDy=0;fontFamily=Helvetica;fontSize=12;fontColor=default;exitX=1;exitY=0.5;exitDx=0;exitDy=0;" edge="1" parent="4gxzHDE2BIGh4aAOhK9_-4" source="4gxzHDE2BIGh4aAOhK9_-21" target="4gxzHDE2BIGh4aAOhK9_-10">
          <mxGeometry relative="1" as="geometry" />
        </mxCell>
        <mxCell id="4gxzHDE2BIGh4aAOhK9_-31" style="edgeStyle=orthogonalEdgeStyle;rounded=0;orthogonalLoop=1;jettySize=auto;html=1;entryX=0;entryY=0.5;entryDx=0;entryDy=0;fontFamily=Helvetica;fontSize=12;fontColor=default;" edge="1" parent="4gxzHDE2BIGh4aAOhK9_-4" source="4gxzHDE2BIGh4aAOhK9_-14" target="4gxzHDE2BIGh4aAOhK9_-23">
          <mxGeometry relative="1" as="geometry" />
        </mxCell>
        <mxCell id="4gxzHDE2BIGh4aAOhK9_-32" style="edgeStyle=orthogonalEdgeStyle;rounded=0;orthogonalLoop=1;jettySize=auto;html=1;entryX=0.5;entryY=0;entryDx=0;entryDy=0;fontFamily=Helvetica;fontSize=12;fontColor=default;exitX=1;exitY=0.5;exitDx=0;exitDy=0;" edge="1" parent="4gxzHDE2BIGh4aAOhK9_-4" source="4gxzHDE2BIGh4aAOhK9_-23" target="4gxzHDE2BIGh4aAOhK9_-18">
          <mxGeometry relative="1" as="geometry">
            <mxPoint x="225" y="420" as="targetPoint" />
          </mxGeometry>
        </mxCell>
        <mxCell id="4gxzHDE2BIGh4aAOhK9_-33" style="edgeStyle=orthogonalEdgeStyle;rounded=0;orthogonalLoop=1;jettySize=auto;html=1;entryX=0.5;entryY=0;entryDx=0;entryDy=0;fontFamily=Helvetica;fontSize=12;fontColor=default;" edge="1" parent="4gxzHDE2BIGh4aAOhK9_-4" source="4gxzHDE2BIGh4aAOhK9_-15" target="4gxzHDE2BIGh4aAOhK9_-25">
          <mxGeometry relative="1" as="geometry" />
        </mxCell>
        <mxCell id="4gxzHDE2BIGh4aAOhK9_-34" value="" style="edgeStyle=orthogonalEdgeStyle;rounded=0;orthogonalLoop=1;jettySize=auto;html=1;fontFamily=Helvetica;fontSize=12;fontColor=default;" edge="1" parent="4gxzHDE2BIGh4aAOhK9_-4" source="4gxzHDE2BIGh4aAOhK9_-25" target="4gxzHDE2BIGh4aAOhK9_-16">
          <mxGeometry relative="1" as="geometry" />
        </mxCell>
        <mxCell id="4gxzHDE2BIGh4aAOhK9_-35" value="No" style="edgeLabel;html=1;align=center;verticalAlign=middle;resizable=0;points=[];strokeColor=default;fontFamily=Helvetica;fontSize=12;fontColor=default;fillColor=default;" connectable="0" vertex="1" parent="4gxzHDE2BIGh4aAOhK9_-34">
          <mxGeometry x="-0.0667" y="1" relative="1" as="geometry">
            <mxPoint as="offset" />
          </mxGeometry>
        </mxCell>
        <mxCell id="4gxzHDE2BIGh4aAOhK9_-36" style="edgeStyle=orthogonalEdgeStyle;rounded=0;orthogonalLoop=1;jettySize=auto;html=1;entryX=0;entryY=0.5;entryDx=0;entryDy=0;fontFamily=Helvetica;fontSize=12;fontColor=default;exitX=0.5;exitY=1;exitDx=0;exitDy=0;" edge="1" parent="4gxzHDE2BIGh4aAOhK9_-4" source="4gxzHDE2BIGh4aAOhK9_-16" target="4gxzHDE2BIGh4aAOhK9_-24">
          <mxGeometry relative="1" as="geometry" />
        </mxCell>
        <mxCell id="4gxzHDE2BIGh4aAOhK9_-37" value="Yes" style="edgeLabel;html=1;align=center;verticalAlign=middle;resizable=0;points=[];strokeColor=default;fontFamily=Helvetica;fontSize=12;fontColor=default;fillColor=default;" connectable="0" vertex="1" parent="4gxzHDE2BIGh4aAOhK9_-36">
          <mxGeometry x="-0.0648" y="2" relative="1" as="geometry">
            <mxPoint y="1" as="offset" />
          </mxGeometry>
        </mxCell>
        <mxCell id="4gxzHDE2BIGh4aAOhK9_-38" style="edgeStyle=orthogonalEdgeStyle;rounded=0;orthogonalLoop=1;jettySize=auto;html=1;entryX=0.5;entryY=0;entryDx=0;entryDy=0;fontFamily=Helvetica;fontSize=12;fontColor=default;exitX=0.5;exitY=1;exitDx=0;exitDy=0;" edge="1" parent="4gxzHDE2BIGh4aAOhK9_-4" source="4gxzHDE2BIGh4aAOhK9_-24" target="4gxzHDE2BIGh4aAOhK9_-17">
          <mxGeometry relative="1" as="geometry" />
        </mxCell>
        <mxCell id="4gxzHDE2BIGh4aAOhK9_-39" style="edgeStyle=orthogonalEdgeStyle;rounded=0;orthogonalLoop=1;jettySize=auto;html=1;entryX=0.5;entryY=0;entryDx=0;entryDy=0;fontFamily=Helvetica;fontSize=12;fontColor=default;" edge="1" parent="4gxzHDE2BIGh4aAOhK9_-4" source="4gxzHDE2BIGh4aAOhK9_-17" target="4gxzHDE2BIGh4aAOhK9_-22">
          <mxGeometry relative="1" as="geometry" />
        </mxCell>
        <mxCell id="4gxzHDE2BIGh4aAOhK9_-41" style="edgeStyle=orthogonalEdgeStyle;rounded=0;orthogonalLoop=1;jettySize=auto;html=1;entryX=0.5;entryY=0;entryDx=0;entryDy=0;fontFamily=Helvetica;fontSize=12;fontColor=default;exitX=0.5;exitY=1;exitDx=0;exitDy=0;" edge="1" parent="4gxzHDE2BIGh4aAOhK9_-4" source="4gxzHDE2BIGh4aAOhK9_-28" target="4gxzHDE2BIGh4aAOhK9_-14">
          <mxGeometry relative="1" as="geometry" />
        </mxCell>
        <mxCell id="4gxzHDE2BIGh4aAOhK9_-42" value="Chăm sóc khách hàng" style="swimlane;html=1;startSize=20;strokeColor=default;align=center;verticalAlign=top;fontFamily=Helvetica;fontSize=12;fontColor=default;fillColor=default;" vertex="1" parent="4gxzHDE2BIGh4aAOhK9_-4">
          <mxGeometry x="800" y="20" width="350" height="940" as="geometry" />
        </mxCell>
        <mxCell id="4gxzHDE2BIGh4aAOhK9_-43" value="Hiện thị trang chủ" style="rounded=1;whiteSpace=wrap;html=1;fillColor=#ffffff;strokeColor=default;align=center;verticalAlign=top;fontFamily=Helvetica;fontSize=12;fontColor=default;" vertex="1" parent="4gxzHDE2BIGh4aAOhK9_-42">
          <mxGeometry x="50" y="55" width="126" height="30" as="geometry" />
        </mxCell>
        <mxCell id="4gxzHDE2BIGh4aAOhK9_-44" value="" style="ellipse;html=1;shape=endState;fillColor=#000000;strokeColor=#ff0000;align=center;verticalAlign=top;fontFamily=Helvetica;fontSize=12;fontColor=default;" vertex="1" parent="4gxzHDE2BIGh4aAOhK9_-42">
          <mxGeometry x="300" y="870" width="30" height="30" as="geometry" />
        </mxCell>
        <mxCell id="4gxzHDE2BIGh4aAOhK9_-45" value="Hiện thị bài kiểm tra" style="rounded=1;whiteSpace=wrap;html=1;fillColor=#ffffff;strokeColor=default;align=center;verticalAlign=top;fontFamily=Helvetica;fontSize=12;fontColor=default;" vertex="1" parent="4gxzHDE2BIGh4aAOhK9_-42">
          <mxGeometry x="62" y="325" width="126" height="30" as="geometry" />
        </mxCell>
        <mxCell id="4gxzHDE2BIGh4aAOhK9_-46" value="Hiện thị điểm và đáp án và khung phản hồi ý kiến" style="rounded=1;whiteSpace=wrap;html=1;fillColor=#ffffff;strokeColor=default;align=center;verticalAlign=middle;fontFamily=Helvetica;fontSize=12;fontColor=default;" vertex="1" parent="4gxzHDE2BIGh4aAOhK9_-42">
          <mxGeometry x="204" y="710" width="126" height="40" as="geometry" />
        </mxCell>
        <mxCell id="4gxzHDE2BIGh4aAOhK9_-47" value="Hết thời gian làm bài&amp;nbsp;" style="rhombus;whiteSpace=wrap;html=1;fillColor=#ffffff;strokeColor=default;align=center;verticalAlign=middle;fontFamily=Helvetica;fontSize=12;fontColor=default;" vertex="1" parent="4gxzHDE2BIGh4aAOhK9_-42">
          <mxGeometry x="110" y="590" width="80" height="80" as="geometry" />
        </mxCell>
        <mxCell id="4gxzHDE2BIGh4aAOhK9_-48" style="edgeStyle=orthogonalEdgeStyle;rounded=0;orthogonalLoop=1;jettySize=auto;html=1;fontFamily=Helvetica;fontSize=12;fontColor=default;exitX=1;exitY=0.5;exitDx=0;exitDy=0;" edge="1" parent="4gxzHDE2BIGh4aAOhK9_-42" source="4gxzHDE2BIGh4aAOhK9_-47" target="4gxzHDE2BIGh4aAOhK9_-46">
          <mxGeometry relative="1" as="geometry" />
        </mxCell>
        <mxCell id="4gxzHDE2BIGh4aAOhK9_-49" value="Yes" style="edgeLabel;html=1;align=center;verticalAlign=middle;resizable=0;points=[];strokeColor=default;fontFamily=Helvetica;fontSize=12;fontColor=default;fillColor=default;" connectable="0" vertex="1" parent="4gxzHDE2BIGh4aAOhK9_-48">
          <mxGeometry x="-0.1102" y="-2" relative="1" as="geometry">
            <mxPoint as="offset" />
          </mxGeometry>
        </mxCell>
        <mxCell id="4gxzHDE2BIGh4aAOhK9_-50" value="Hiện thị danh sách bài kiểm tra" style="rounded=1;whiteSpace=wrap;html=1;fillColor=#ffffff;strokeColor=default;align=center;verticalAlign=top;fontFamily=Helvetica;fontSize=12;fontColor=default;" vertex="1" parent="4gxzHDE2BIGh4aAOhK9_-42">
          <mxGeometry x="40" y="240" width="170" height="40" as="geometry" />
        </mxCell>
        <mxCell id="4gxzHDE2BIGh4aAOhK9_-11" style="edgeStyle=orthogonalEdgeStyle;rounded=0;orthogonalLoop=1;jettySize=auto;html=1;entryX=0;entryY=0.5;entryDx=0;entryDy=0;fontFamily=Helvetica;fontSize=12;fontColor=default;" edge="1" parent="4gxzHDE2BIGh4aAOhK9_-4" source="4gxzHDE2BIGh4aAOhK9_-12" target="4gxzHDE2BIGh4aAOhK9_-28">
          <mxGeometry relative="1" as="geometry">
            <mxPoint x="153" y="265" as="targetPoint" />
          </mxGeometry>
        </mxCell>
      </root>
    </mxGraphModel>
  </diagram>
</mxfile>
